<?xml version="1.0" standalone="no"?>
<!DOCTYPE svg PUBLIC "-//W3C//DTD SVG 20010904//EN"
 "http://www.w3.org/TR/2001/REC-SVG-20010904/DTD/svg10.dtd">
<svg version="1.0" xmlns="http://www.w3.org/2000/svg"
 width="192.000000pt" height="160.000000pt" viewBox="0 0 192.000000 160.000000"
 preserveAspectRatio="xMidYMid meet">
<g transform="translate(0.000000,160.000000) scale(0.100000,-0.100000)"
fill="#000000" stroke="none">
<path d="M680 1356 c0 -2 8 -10 18 -17 15 -13 16 -12 3 4 -13 16 -21 21 -21
13z"/>
<path d="M877 1342 c-20 -22 -47 -95 -47 -128 0 -37 -14 -36 -56 7 -106 110
-211 104 -207 -12 4 -131 172 -349 269 -349 l34 0 3 -342 2 -343 3 348 c2 339
2 347 22 347 19 0 20 -8 22 -347 3 -330 4 -348 22 -351 11 -3 16 0 11 7 -3 6
-11 9 -16 6 -5 -4 -9 128 -9 339 l0 345 24 35 c26 38 46 132 46 211 0 165 -67
289 -123 227z m70 -18 c22 -35 43 -134 43 -209 0 -116 -38 -235 -75 -235 -12
0 -12 5 -4 27 17 46 -27 187 -78 245 -10 11 -12 22 -5 35 5 10 15 41 21 68 22
93 63 122 98 69z m-248 -54 c122 -62 249 -315 192 -383 -22 -27 -82 -21 -128
12 -126 91 -228 310 -174 374 18 23 63 21 110 -3z"/>
<path d="M975 525 c0 -198 1 -280 2 -183 2 97 2 259 0 360 -1 101 -2 21 -2
-177z"/>
<path d="M995 870 c4 -6 11 -8 16 -5 14 9 11 15 -7 15 -8 0 -12 -5 -9 -10z"/>
<path d="M1030 526 l0 -355 38 6 c20 3 42 10 47 15 6 6 4 7 -7 3 -17 -7 -18
15 -21 336 l-2 344 -3 -341 c-2 -332 -3 -342 -22 -347 -20 -5 -20 0 -20 339 0
322 1 343 18 338 14 -5 15 -4 2 5 -8 6 -18 11 -22 11 -5 0 -8 -159 -8 -354z"/>
<path d="M1130 524 l0 -335 23 7 c12 3 33 13 47 21 14 8 17 12 8 9 -17 -5 -18
14 -18 300 0 301 0 305 20 294 19 -10 20 -23 23 -303 l2 -292 3 296 2 297 -49
21 c-27 11 -52 21 -55 21 -3 0 -6 -151 -6 -336z m50 1 c0 -304 -1 -313 -20
-318 -20 -5 -20 0 -20 318 0 318 0 323 20 318 19 -5 20 -14 20 -318z"/>
<path d="M834 520 c0 -184 2 -260 3 -167 2 92 2 242 0 335 -1 92 -3 16 -3
-168z"/>
<path d="M784 525 c0 -176 2 -247 3 -157 2 90 2 234 0 320 -1 86 -3 13 -3
-163z"/>
<path d="M744 525 c0 -165 2 -234 3 -153 2 81 2 216 0 300 -1 84 -3 18 -3
-147z"/>
<path d="M670 763 l-51 -48 0 -189 c0 -158 3 -192 15 -203 9 -7 11 -8 6 -1
-15 18 -13 374 3 401 10 18 13 -17 17 -207 l5 -228 35 -26 c19 -14 29 -20 23
-12 -18 20 -18 531 -1 548 7 7 9 12 6 12 -4 0 -30 -21 -58 -47z m30 -239 c0
-227 -2 -255 -15 -244 -13 10 -15 50 -15 244 0 167 3 235 12 244 7 7 13 12 15
12 2 0 3 -115 3 -256z"/>
<path d="M1258 800 c18 -20 18 -536 0 -543 -7 -2 -10 -7 -7 -10 3 -4 22 7 42
24 l37 30 0 223 c0 245 4 227 -65 276 -17 12 -18 12 -7 0z m62 -275 c0 -202
-1 -217 -20 -237 l-20 -22 0 259 0 259 20 -22 c19 -20 20 -35 20 -237z"/>
<path d="M1348 720 c15 -18 18 -380 2 -380 -5 0 -10 -5 -10 -11 0 -8 5 -8 15
1 12 10 15 45 15 195 0 162 -2 184 -17 196 -15 11 -16 11 -5 -1z"/>
<path d="M586 661 c-23 -43 -23 -227 -1 -270 9 -18 19 -30 22 -27 3 3 -2 17
-11 30 -12 20 -16 50 -16 135 0 65 4 111 10 113 10 3 23 48 15 48 -3 0 -11
-13 -19 -29z"/>
<path d="M1387 660 c10 -33 10 -249 0 -275 -5 -11 -1 -7 8 8 23 40 23 223 0
264 -14 25 -15 26 -8 3z"/>
<path d="M553 525 c0 -27 2 -38 4 -22 2 15 2 37 0 50 -2 12 -4 0 -4 -28z"/>
<path d="M1423 525 c0 -27 2 -38 4 -22 2 15 2 37 0 50 -2 12 -4 0 -4 -28z"/>
<path d="M1415 340 c3 -5 8 -10 11 -10 2 0 4 5 4 10 0 6 -5 10 -11 10 -5 0 -7
-4 -4 -10z"/>
<path d="M995 180 c-3 -5 1 -10 10 -10 9 0 13 5 10 10 -3 6 -8 10 -10 10 -2 0
-7 -4 -10 -10z"/>
</g>
</svg>
