<svg xmlns="http://www.w3.org/2000/svg" width="318" height="331" viewBox="0 0 318 331">
<g>
<path d="M 155.00 317.07 C154.40,316.72 150.24,316.24 144.58,315.78 C145.52,315.83 146.52,315.87 147.50,315.88 L 153.50 316.00 L 152.98 142.00 L 149.05 142.00 L 147.51 139.66 C146.55,138.20 146.06,137.00 146.41,137.00 C146.76,137.00 146.33,135.61 145.45,133.91 C144.57,132.21 144.09,130.57 144.39,130.28 C144.69,129.98 144.42,128.79 143.80,127.63 C142.74,125.65 142.00,122.43 141.81,119.00 C141.76,118.18 141.34,117.00 140.86,116.39 C140.38,115.79 139.82,113.99 139.62,112.39 C139.41,110.80 138.74,108.26 138.14,106.75 C137.54,105.24 137.27,104.00 137.55,104.00 C137.82,104.00 137.34,102.93 136.48,101.62 C135.63,100.31 135.03,98.84 135.17,98.37 C135.30,97.89 134.65,95.25 133.72,92.50 C132.80,89.75 131.87,86.60 131.67,85.50 C131.16,82.72 130.12,80.01 128.22,76.50 C127.32,74.85 126.62,73.28 126.65,73.00 C126.68,72.72 125.65,70.82 124.35,68.77 C123.06,66.72 122.00,64.76 122.00,64.41 C122.00,64.07 120.20,61.53 118.00,58.76 C115.80,56.00 114.00,53.43 114.00,53.06 C114.00,52.47 107.13,47.78 98.90,42.74 C94.91,40.30 81.47,38.75 67.69,39.15 L 55.25 39.50 L 48.67 43.96 C42.22,48.33 37.52,53.55 32.89,61.44 C31.05,64.58 30.50,67.22 30.21,74.44 C29.89,82.34 30.18,84.39 32.48,90.50 C36.29,100.60 42.04,109.81 48.36,115.96 C55.77,123.16 70.41,133.50 75.43,135.08 C77.67,135.78 79.95,136.65 80.50,137.00 C81.05,137.35 83.30,138.13 85.50,138.73 C96.82,141.80 100.77,143.15 103.50,144.84 C105.10,145.83 107.51,146.33 110.04,146.32 L 107.50 146.50 L 106.99 310.80 L 110.74 311.80 C112.81,312.34 114.84,312.84 115.25,312.90 C115.66,312.95 116.00,275.40 116.00,229.44 L 116.00 145.89 L 112.51 146.14 C113.72,145.97 114.91,145.68 116.00,145.27 C116.82,144.96 120.17,144.57 123.42,144.41 C123.83,144.40 124.21,144.37 124.57,144.35 C124.09,144.43 123.63,144.53 123.25,144.63 L 121.00 145.23 L 121.00 313.86 L 123.25 314.29 C124.02,314.44 124.73,314.56 125.39,314.66 C124.24,314.62 123.11,314.58 122.00,314.55 C119.53,314.48 116.38,313.89 115.00,313.25 C113.62,312.60 107.73,310.94 101.90,309.55 C100.87,309.30 99.82,309.04 98.77,308.78 C98.90,306.21 99.00,271.77 99.00,230.00 L 99.00 151.00 L 96.18 151.00 C95.16,151.00 93.36,151.31 91.52,151.77 L 96.26 150.30 L 86.88 148.03 C71.18,144.22 59.08,137.62 45.32,125.35 C34.64,115.82 28.85,106.86 23.87,92.10 C19.50,79.18 20.22,65.78 25.82,56.00 C34.02,41.67 44.56,33.33 57.55,30.89 C65.89,29.31 90.77,30.89 99.03,33.51 C100.47,33.97 101.28,33.15 102.79,29.74 C105.22,24.25 110.46,20.09 121.40,14.99 C133.50,9.35 139.54,7.99 152.46,8.03 C173.37,8.09 183.85,10.92 191.48,18.55 C200.67,27.73 205.44,56.29 201.42,78.00 C200.56,82.68 199.24,91.00 198.48,96.50 C195.98,114.76 190.75,131.70 185.47,138.63 C184.05,140.49 183.12,142.39 183.41,142.86 C183.59,143.15 184.78,143.49 186.58,143.82 L 186.47 143.81 C183.76,143.49 183.06,143.72 183.47,144.78 C183.76,145.54 184.00,184.15 184.00,230.58 L 184.00 315.00 L 190.00 315.00 L 190.00 144.36 C194.17,144.92 199.56,145.38 203.78,145.43 C206.68,145.47 209.39,146.02 209.79,146.66 C210.22,147.36 212.88,148.35 216.12,149.23 C213.35,148.54 211.22,148.03 211.00,148.02 C210.73,148.01 210.62,184.72 210.76,229.60 C211.01,306.65 211.12,311.17 212.76,310.51 C213.68,310.14 216.53,309.26 219.20,308.51 C216.08,309.56 213.38,310.51 212.00,311.06 C209.52,312.05 205.87,312.88 203.87,312.90 C203.75,312.90 203.62,312.90 203.50,312.90 L 203.23 229.81 C203.08,184.06 202.82,146.48 202.65,146.32 C202.48,146.15 200.24,145.72 197.67,145.37 L 193.00 144.73 L 193.00 228.70 C193.00,274.88 193.29,312.95 193.64,313.31 C193.99,313.66 195.23,313.77 196.39,313.55 C197.27,313.38 198.69,313.22 199.92,313.13 C196.73,313.46 193.68,314.08 192.70,314.68 C192.17,315.01 184.94,315.49 176.63,315.73 C168.32,315.98 160.76,316.60 159.82,317.09 C157.76,318.20 156.94,318.19 155.00,317.07 ZM 175.41 139.50 C175.76,138.12 176.48,137.00 177.02,137.00 C177.56,137.00 178.00,136.38 178.00,135.63 C178.00,134.87 179.10,132.28 180.44,129.88 C183.21,124.89 186.09,116.87 186.25,113.66 C186.31,112.47 186.79,110.93 187.32,110.23 C187.85,109.53 188.00,108.67 187.65,108.32 C187.30,107.97 187.54,107.06 188.17,106.29 C188.81,105.53 189.44,102.47 189.58,99.49 C189.72,96.52 190.09,93.66 190.42,93.13 C190.74,92.61 190.74,91.48 190.41,90.63 C190.09,89.78 190.41,87.38 191.12,85.29 C191.84,83.21 192.55,80.60 192.70,79.50 C192.85,78.40 193.26,75.93 193.61,74.00 C194.63,68.48 194.68,49.70 193.69,47.61 C193.19,46.57 192.62,44.55 192.42,43.11 C191.68,37.75 191.35,36.44 190.14,34.23 C189.46,32.98 189.15,31.57 189.44,31.09 C189.74,30.62 189.31,29.67 188.49,28.99 C187.67,28.31 187.00,27.25 187.00,26.63 C187.00,24.54 179.86,19.78 174.66,18.40 C171.40,17.53 164.17,17.03 155.00,17.04 C139.18,17.05 134.56,18.04 122.99,23.93 C113.98,28.50 113.20,29.14 110.77,33.86 C108.85,37.58 108.73,38.34 110.00,38.75 C110.82,39.01 114.65,42.46 118.50,46.41 C126.48,54.61 134.63,67.69 138.37,78.28 C142.12,88.91 147.73,107.50 149.62,115.50 C150.53,119.35 152.33,125.77 153.63,129.77 C154.94,133.77 156.00,137.60 156.00,138.28 C156.00,140.44 160.25,141.75 167.64,141.88 C174.47,141.99 174.81,141.89 175.41,139.50 ZM 161.00 230.62 L 161.00 316.08 L 168.75 315.79 C173.01,315.63 176.39,315.16 176.25,314.75 C176.11,314.34 176.00,275.30 176.00,228.00 L 176.00 142.00 L 167.89 142.00 C160.91,142.00 159.87,142.22 160.39,143.58 C160.73,144.45 161.00,183.62 161.00,230.62 ZM 139.75 315.31 C140.01,315.38 140.46,315.45 141.05,315.51 C137.41,315.26 133.39,315.02 129.41,314.83 C130.49,314.65 130.90,314.18 130.61,313.42 C130.27,312.55 130.00,274.07 130.00,227.92 L 130.00 144.00 L 127.75 144.01 C127.58,144.01 127.39,144.02 127.18,144.03 C128.87,143.72 129.84,143.25 130.22,142.58 C130.94,141.28 132.55,141.13 140.17,141.67 L 144.78 142.00 C136.95,142.00 136.78,142.06 137.37,144.25 C137.70,145.49 137.98,184.38 137.99,230.68 C138.00,310.00 138.10,314.88 139.75,315.31 ZM 234.00 228.93 C234.00,286.90 234.27,303.00 235.23,303.00 C235.35,303.00 235.53,302.97 235.77,302.92 C233.21,303.89 230.68,304.80 228.47,305.53 C228.51,305.48 228.53,305.42 228.53,305.37 C228.56,305.08 228.20,304.75 227.77,304.22 C226.78,303.03 226.39,286.19 226.00,227.16 L 225.50 151.63 L 218.57 149.86 C222.67,150.82 227.04,151.50 228.89,151.23 C231.56,150.84 232.22,151.13 232.68,152.88 C232.93,153.82 233.47,154.63 234.00,154.91 ZM 85.48 305.04 C83.74,304.58 82.16,304.38 81.58,304.61 C80.83,304.90 79.37,304.30 78.35,303.27 C77.78,302.70 76.04,301.64 73.77,300.46 C74.44,300.72 74.99,300.91 75.22,300.93 C75.62,300.97 75.97,268.83 75.99,229.50 C76.01,184.19 75.67,158.00 75.06,158.00 C74.62,158.00 73.52,158.33 72.44,158.77 C75.04,157.37 76.49,156.19 76.98,155.12 C77.90,153.12 78.59,152.83 81.44,153.30 C83.05,153.56 85.98,153.25 88.82,152.55 C88.77,152.56 88.73,152.58 88.68,152.59 L 84.00 154.19 L 83.99 225.34 C83.98,264.48 83.70,298.18 83.36,300.23 C82.94,302.81 82.93,303.90 85.48,305.04 ZM 286.03 228.90 L 286.00 270.31 L 288.11 268.40 C288.20,268.32 288.30,268.23 288.39,268.14 C286.53,270.50 286.00,271.54 286.00,272.37 C286.00,273.27 285.38,274.00 284.62,274.00 C283.86,274.00 282.66,274.70 281.95,275.56 C281.36,276.27 277.85,279.12 273.64,282.33 C276.11,280.27 276.66,279.29 276.05,278.57 C275.30,277.65 274.98,262.04 275.02,227.59 C275.05,200.42 274.81,177.73 274.48,176.97 C274.49,176.98 274.49,176.99 274.50,177.00 C274.84,177.55 276.01,178.00 277.09,178.00 C278.18,178.00 279.35,178.79 279.70,179.75 C280.06,180.71 282.78,184.15 285.75,187.39 C285.85,187.50 285.95,187.61 286.05,187.72 ZM 44.78 284.23 C42.85,282.90 41.00,281.82 40.14,281.54 C38.96,281.17 38.00,280.31 38.00,279.64 C38.00,279.12 37.00,277.73 35.60,276.22 C36.75,277.24 37.64,277.98 37.75,277.98 C37.89,277.99 37.99,255.84 37.97,228.75 L 37.93 179.50 L 31.37 186.36 C26.63,191.32 25.12,193.52 25.91,194.31 C27.42,195.82 27.44,262.16 25.92,263.68 C25.24,264.36 26.31,266.44 28.61,269.20 C24.90,265.27 22.00,261.77 22.00,261.05 C22.00,260.75 21.57,259.75 20.90,258.43 L 21.50 259.50 L 21.78 244.25 C21.93,235.86 21.93,222.14 21.78,213.75 L 21.50 198.50 L 18.63 203.96 C16.81,207.41 16.17,209.56 16.88,209.79 C18.35,210.28 18.47,247.00 17.00,247.00 C16.20,247.00 15.91,247.56 16.12,248.69 C15.66,247.43 15.30,246.25 15.10,245.30 C14.83,243.97 14.45,242.20 14.06,240.42 C14.25,240.78 14.41,241.00 14.52,241.00 C14.78,241.00 14.97,235.04 14.94,227.75 C14.89,217.69 14.65,215.17 13.87,216.88 C15.00,212.11 16.74,207.36 18.96,203.25 C20.63,200.17 22.00,197.07 22.00,196.37 C22.00,195.67 22.61,194.74 23.36,194.30 C24.10,193.86 28.02,189.90 32.06,185.50 C36.10,181.10 39.88,177.32 40.45,177.10 C41.02,176.88 42.37,176.04 44.03,174.91 L 42.93 175.71 L 42.95 228.93 C42.97,258.21 43.24,282.58 43.56,283.10 C43.68,283.30 44.12,283.70 44.78,284.23 ZM 261.00 229.50 C261.00,263.33 261.25,291.00 261.55,291.00 C261.79,291.00 264.03,289.49 266.95,287.39 C263.60,289.96 261.11,291.97 260.86,292.34 C260.51,292.85 259.38,293.35 258.36,293.46 C257.80,293.51 256.04,294.17 253.71,295.16 C253.91,295.03 254.11,294.89 254.30,294.75 C255.85,293.60 255.99,288.30 256.02,229.04 L 256.06 164.59 L 253.53 163.26 L 252.11 162.52 C255.58,164.00 258.18,165.00 258.64,165.00 C259.33,165.00 260.26,165.60 260.70,166.33 C261.06,166.92 263.18,168.65 265.79,170.51 C263.65,169.09 261.88,168.00 261.55,168.00 C261.25,168.00 261.00,195.68 261.00,229.50 ZM 251.00 228.97 C251.00,265.41 251.36,295.30 251.79,295.99 C250.29,296.65 248.65,297.41 247.00,298.20 C246.84,298.27 246.67,298.35 246.50,298.43 L 246.23 230.74 C246.06,187.33 246.31,162.29 246.94,161.66 C247.41,161.19 246.07,160.08 243.88,158.86 C244.72,159.23 245.57,159.61 246.44,160.01 C248.02,160.73 249.57,161.42 251.00,162.04 ZM 57.85 292.33 C57.22,291.87 56.16,291.28 55.03,290.78 C55.28,288.12 55.37,261.57 55.23,229.50 C55.09,195.68 54.64,168.01 54.23,168.03 C53.94,168.05 52.41,168.98 50.47,170.30 C52.95,168.43 54.99,166.78 55.30,166.29 C55.74,165.58 56.64,165.00 57.30,165.01 C57.72,165.01 59.69,164.33 62.30,163.29 C62.27,163.31 62.25,163.32 62.22,163.34 L 59.94 164.60 L 59.98 227.24 C60.03,284.72 59.89,289.96 58.36,290.82 C57.53,291.28 57.25,291.68 57.85,292.33 ZM 70.03 298.60 C69.27,298.25 68.50,297.90 67.72,297.56 C67.23,297.35 66.75,297.13 66.28,296.92 C66.68,295.54 67.00,265.74 67.00,229.50 C67.00,173.34 67.13,162.85 64.81,162.27 C65.59,161.95 66.39,161.61 67.19,161.26 C68.02,160.90 68.79,160.56 69.50,160.23 L 69.76 229.40 L 70.03 298.60 ZM 297.03 229.25 C297.01,242.86 297.19,254.00 297.43,254.00 C297.75,254.00 298.22,253.37 298.75,252.29 C298.49,252.98 298.22,253.74 297.98,254.50 C297.27,256.70 295.90,259.40 294.93,260.50 C294.05,261.50 293.25,262.41 292.53,263.24 C293.47,261.64 293.74,260.34 293.12,259.72 C292.34,258.94 292.00,249.76 292.00,229.77 C292.00,205.28 292.22,200.85 293.48,200.37 C294.75,199.88 294.77,199.49 293.55,197.24 C295.79,200.58 297.66,203.96 299.17,207.39 C298.96,207.04 298.73,206.71 298.51,206.41 C297.24,204.73 297.06,207.47 297.03,229.25 ZM 280.00 228.91 C280.00,266.27 280.26,276.08 281.25,275.75 C282.22,275.43 282.56,265.48 282.76,231.47 C282.93,203.59 283.39,187.38 284.02,186.99 C284.59,186.64 283.94,185.35 282.51,184.01 L 280.00 181.65 ZM 302.70 218.29 C304.24,225.59 304.19,233.05 302.53,240.60 C301.57,244.94 300.44,248.95 300.02,249.50 C299.94,249.60 299.85,249.76 299.74,249.96 C300.73,247.39 301.78,243.89 302.57,240.32 C304.02,233.83 303.93,225.38 302.70,218.29 ZM 12.75 234.31 C12.10,230.43 12.25,225.71 13.06,220.83 C12.64,224.69 12.51,230.30 12.75,234.31 ZM 60.09 293.92 C59.12,293.40 58.51,293.02 58.40,292.84 C58.39,292.83 58.38,292.81 58.36,292.79 C58.77,293.10 59.34,293.48 60.09,293.92 ZM 234.52 155.03 C234.71,155.07 235.04,155.18 235.46,155.33 L 234.52 155.03 ZM 270.80 173.99 C271.34,174.39 271.85,174.77 272.31,175.11 C271.85,174.76 271.34,174.39 270.80,173.99 Z" fill="rgba(0,0,0,1)"/>
<path d="M 139.75 315.31 C138.10,314.88 138.00,310.00 137.99,230.68 C137.98,184.38 137.70,145.49 137.37,144.25 C136.78,142.05 136.95,142.00 144.87,142.00 L 152.98 142.00 L 153.24 229.00 L 153.50 316.00 L 147.50 315.88 C144.20,315.82 140.71,315.56 139.75,315.31 ZM 161.00 230.62 C161.00,183.62 160.73,144.45 160.39,143.58 C159.87,142.22 160.91,142.00 167.89,142.00 L 176.00 142.00 L 176.00 228.00 C176.00,275.30 176.11,314.34 176.25,314.75 C176.39,315.16 173.01,315.63 168.75,315.79 L 161.00 316.08 L 161.00 230.62 ZM 123.25 314.29 L 121.00 313.86 L 121.00 229.55 L 121.00 145.23 L 123.25 144.63 C124.49,144.30 126.51,144.02 127.75,144.01 L 130.00 144.00 L 130.00 227.92 C130.00,274.07 130.27,312.55 130.61,313.42 C131.23,315.04 128.70,315.34 123.25,314.29 ZM 184.00 230.58 C184.00,184.15 183.76,145.54 183.47,144.78 C183.06,143.72 183.76,143.49 186.47,143.81 L 190.00 144.22 L 190.00 229.61 L 190.00 315.00 L 187.00 315.00 L 184.00 315.00 L 184.00 230.58 ZM 193.64 313.31 C193.29,312.95 193.00,274.88 193.00,228.70 L 193.00 144.73 L 197.67 145.37 C200.24,145.72 202.48,146.15 202.65,146.32 C202.82,146.48 203.08,184.06 203.23,229.81 L 203.50 313.00 L 201.00 313.07 C199.62,313.12 197.55,313.33 196.39,313.55 C195.23,313.77 193.99,313.66 193.64,313.31 ZM 110.74 311.80 L 106.99 310.80 L 107.24 228.65 L 107.50 146.50 L 111.75 146.19 L 116.00 145.89 L 116.00 229.44 C116.00,275.40 115.66,312.95 115.25,312.90 C114.84,312.84 112.81,312.34 110.74,311.80 ZM 210.76 229.60 C210.62,184.72 210.73,148.01 211.00,148.02 C211.27,148.04 214.65,148.85 218.50,149.84 L 225.50 151.63 L 226.00 227.16 C226.39,286.19 226.78,303.03 227.77,304.22 C229.16,305.90 229.74,305.60 219.50,308.43 C216.75,309.19 213.72,310.13 212.76,310.51 C211.12,311.17 211.01,306.65 210.76,229.60 ZM 93.50 307.51 C83.09,304.69 82.67,304.39 83.36,300.23 C83.70,298.18 83.98,264.48 83.99,225.34 L 84.00 154.19 L 88.68 152.59 C91.25,151.72 94.63,151.00 96.18,151.00 L 99.00 151.00 L 99.00 230.00 C99.00,273.45 98.89,308.97 98.75,308.93 C98.61,308.90 96.25,308.26 93.50,307.51 ZM 234.00 228.93 L 234.00 154.87 L 236.15 155.55 C241.91,157.37 247.85,160.75 246.94,161.66 C246.31,162.29 246.06,187.33 246.23,230.74 L 246.50 298.84 L 241.48 300.92 C238.72,302.06 235.91,303.00 235.23,303.00 C234.27,303.00 234.00,286.90 234.00,228.93 ZM 72.26 299.79 L 70.03 298.71 L 69.76 229.40 L 69.50 160.09 L 71.80 159.05 C73.06,158.47 74.53,158.00 75.06,158.00 C75.67,158.00 76.01,184.19 75.99,229.50 C75.97,268.83 75.62,300.97 75.22,300.93 C74.83,300.90 73.49,300.38 72.26,299.79 ZM 63.50 295.85 C57.29,292.46 56.61,291.80 58.36,290.82 C59.89,289.96 60.03,284.72 59.98,227.24 L 59.94 164.60 L 62.22 163.34 C67.22,160.56 67.00,157.55 67.00,229.50 C67.00,266.62 66.66,296.99 66.25,296.97 C65.84,296.95 64.60,296.45 63.50,295.85 ZM 251.00 228.97 L 251.00 161.94 L 253.53 163.26 L 256.06 164.59 L 256.02 229.04 C255.99,288.30 255.85,293.60 254.30,294.75 C253.38,295.44 252.25,296.00 251.81,296.00 C251.36,296.00 251.00,265.84 251.00,228.97 ZM 49.31 287.52 C46.47,285.61 43.88,283.62 43.56,283.10 C43.24,282.58 42.97,258.21 42.95,228.93 L 42.93 175.71 L 48.22 171.89 C51.12,169.78 53.83,168.05 54.23,168.03 C54.64,168.01 55.09,195.68 55.23,229.50 C55.38,263.33 55.27,291.00 54.99,291.00 C54.70,291.00 52.15,289.44 49.31,287.52 ZM 261.00 229.50 C261.00,195.68 261.25,168.00 261.55,168.00 C262.44,168.00 273.81,175.89 274.47,176.96 C274.80,177.49 275.05,200.27 275.02,227.59 C274.98,262.04 275.30,277.65 276.05,278.57 C276.90,279.59 275.47,281.12 269.63,285.44 C265.49,288.50 261.86,291.00 261.55,291.00 C261.25,291.00 261.00,263.33 261.00,229.50 ZM 34.50 275.23 C28.42,269.70 24.79,264.81 25.92,263.68 C27.44,262.16 27.42,195.82 25.91,194.31 C25.12,193.52 26.63,191.32 31.37,186.36 L 37.93 179.50 L 37.97 228.75 C37.99,255.84 37.89,277.99 37.75,277.98 C37.61,277.98 36.15,276.74 34.50,275.23 ZM 280.00 228.91 L 280.00 181.65 L 282.51 184.01 C283.94,185.35 284.59,186.64 284.02,186.99 C283.39,187.38 282.93,203.59 282.76,231.47 C282.56,265.48 282.22,275.43 281.25,275.75 C280.26,276.08 280.00,266.27 280.00,228.91 ZM 286.03 228.90 L 286.05 187.50 L 289.05 191.00 C290.71,192.93 292.71,195.69 293.50,197.15 C294.77,199.48 294.77,199.88 293.48,200.37 C292.22,200.85 292.00,205.28 292.00,229.77 C292.00,249.76 292.34,258.94 293.12,259.72 C294.34,260.94 292.12,264.78 288.11,268.40 L 286.00 270.31 L 286.03 228.90 ZM 18.75 254.62 C15.88,249.54 15.30,247.00 17.00,247.00 C18.47,247.00 18.35,210.28 16.88,209.79 C16.17,209.56 16.81,207.41 18.63,203.96 L 21.50 198.50 L 21.78 213.75 C21.93,222.14 21.93,235.86 21.78,244.25 L 21.50 259.50 L 18.75 254.62 ZM 297.03 229.25 C297.06,207.47 297.24,204.73 298.51,206.41 C303.03,212.38 305.04,229.21 302.57,240.32 C301.03,247.27 298.49,254.00 297.43,254.00 C297.19,254.00 297.01,242.86 297.03,229.25 ZM 13.27 238.25 C12.18,234.35 12.55,219.98 13.81,217.00 C14.64,215.06 14.89,217.46 14.94,227.75 C14.97,235.04 14.78,241.00 14.52,241.00 C14.25,241.00 13.69,239.76 13.27,238.25 Z" fill="rgba(253,199,12,1)"/>
</g>
</svg>