<?xml version="1.0" standalone="no"?>
<!DOCTYPE svg PUBLIC "-//W3C//DTD SVG 20010904//EN"
 "http://www.w3.org/TR/2001/REC-SVG-20010904/DTD/svg10.dtd">
<svg version="1.0" xmlns="http://www.w3.org/2000/svg"
 width="600.000000pt" height="537.000000pt" viewBox="0 0 600.000000 537.000000"
 preserveAspectRatio="xMidYMid meet">
<g transform="translate(0.000000,537.000000) scale(0.100000,-0.100000)"
fill="#000000" stroke="none">
<path d="M2661 4673 c1 -38 26 -159 37 -180 7 -12 12 -34 12 -49 0 -26 -1 -27
-47 -20 -30 4 -65 18 -91 37 -39 28 -45 30 -59 17 -13 -14 -13 -19 2 -48 9
-17 14 -34 11 -37 -2 -3 -43 27 -91 67 -52 43 -92 70 -100 66 -17 -6 -20 -32
-6 -41 6 -3 31 -35 56 -72 34 -48 43 -69 35 -77 -7 -7 -61 -11 -148 -11 -110
-1 -143 -4 -169 -18 -59 -31 -141 -16 -233 43 -81 52 -102 34 -54 -47 55 -95
13 -132 -152 -133 -130 0 -250 -29 -319 -76 -27 -19 -86 -60 -130 -90 -78 -54
-82 -55 -140 -52 -54 3 -60 1 -60 -17 0 -14 9 -21 33 -26 37 -7 91 -55 124
-107 17 -27 18 -37 9 -64 -6 -17 -19 -40 -28 -50 -15 -17 -14 -20 24 -56 49
-45 61 -77 39 -101 -22 -24 -20 -48 4 -63 18 -12 20 -24 20 -118 0 -114 10
-143 53 -154 23 -5 23 -7 22 -148 0 -89 -4 -151 -12 -163 -36 -62 -150 -125
-228 -125 -19 0 -37 -5 -41 -12 -13 -20 26 -36 102 -43 l75 -7 -3 -32 c-3 -29
-1 -31 34 -34 22 -2 47 3 62 14 23 14 26 14 26 1 0 -26 -80 -85 -139 -104 -74
-24 -73 -43 1 -66 81 -26 89 -73 25 -135 -40 -38 -153 -98 -201 -107 -46 -9
-52 -19 -25 -46 21 -21 28 -22 130 -16 85 5 109 4 109 -6 0 -7 -6 -19 -12 -25
-16 -16 5 -32 43 -32 14 0 28 -3 32 -6 10 -11 -22 -86 -53 -120 -46 -52 -62
-91 -81 -191 -20 -102 -62 -182 -128 -241 -51 -46 -155 -95 -196 -94 -56 2
-43 -25 28 -58 34 -17 69 -30 77 -30 8 -1 26 -7 39 -14 l23 -13 -37 -30 c-20
-17 -48 -36 -63 -44 -71 -35 -139 -133 -80 -114 46 14 109 22 114 14 7 -12
-11 -42 -51 -86 -38 -42 -95 -141 -95 -167 0 -21 18 -20 75 5 25 11 49 18 53
15 3 -3 1 -23 -4 -44 -8 -33 -14 -38 -51 -47 -23 -6 -48 -16 -54 -22 -20 -20
1 -67 56 -132 47 -55 148 -131 173 -131 6 0 19 -11 27 -24 13 -19 14 -29 5
-45 -9 -18 -20 -21 -68 -21 -70 0 -87 -13 -65 -46 l15 -24 342 0 341 1 -60 25
c-121 50 -121 49 28 54 142 5 172 14 147 45 -7 8 -18 15 -26 15 -7 0 -18 9
-24 20 -6 11 -9 20 -8 20 2 0 32 -9 68 -20 84 -26 92 -25 130 6 34 29 30 43
-20 64 -17 7 -30 15 -30 19 0 13 76 38 105 34 16 -2 59 -7 95 -11 l65 -7 2
-45 c3 -73 15 -130 27 -130 7 0 17 19 23 43 12 41 54 97 74 97 10 0 13 -7 23
-52 4 -16 12 -28 19 -27 17 1 69 66 58 73 -5 4 -18 -5 -29 -19 -25 -31 -32
-32 -32 -1 0 13 -7 29 -15 36 -26 22 -63 -3 -113 -76 -11 -16 -12 -11 -8 39 6
80 -6 91 -97 87 -22 -1 -57 8 -84 21 -26 13 -63 25 -82 28 l-34 6 44 30 c119
80 143 110 98 122 -12 3 -42 17 -68 29 -25 13 -50 24 -54 24 -4 0 -24 7 -43
15 l-36 15 43 33 c80 60 78 119 -2 125 -24 2 -53 11 -64 21 -11 10 -29 23 -40
29 -19 11 -19 11 6 12 27 0 79 47 79 71 -1 33 -28 50 -96 60 -37 5 -83 6 -103
3 -33 -7 -35 -6 -22 9 7 10 19 17 26 17 14 0 75 68 75 82 0 5 -9 17 -20 28
-24 24 -74 25 -165 6 -66 -14 -80 -12 -50 10 77 54 135 108 135 126 0 17 -79
2 -159 -31 -41 -17 -81 -31 -91 -31 -9 0 -38 -7 -64 -16 -26 -9 -50 -14 -53
-10 -8 8 34 42 77 62 19 9 50 27 68 41 17 13 47 29 65 35 42 15 97 67 90 87
-3 9 -20 32 -38 51 -18 19 -35 46 -37 60 -3 14 -9 34 -14 45 -5 13 7 7 38 -21
26 -22 65 -48 87 -56 l41 -16 0 41 1 42 53 -59 c49 -54 56 -59 97 -60 l44 -1
-1 48 c0 26 3 47 8 47 4 0 8 -6 8 -12 0 -27 66 -85 112 -98 45 -13 47 -15 53
-59 7 -56 43 -168 62 -198 8 -12 16 -32 18 -45 10 -73 37 -201 54 -253 18 -59
18 -62 0 -150 -10 -49 -19 -106 -20 -125 -2 -43 24 -123 53 -163 28 -39 115
-78 191 -84 34 -3 80 -14 102 -24 22 -10 63 -20 90 -22 28 -3 73 -10 100 -17
61 -14 125 -6 159 21 30 23 40 19 61 -22 9 -16 19 -29 23 -29 4 1 20 21 36 46
16 25 32 42 37 37 4 -4 -3 -57 -16 -118 -32 -143 -32 -155 0 -155 14 0 25 4
25 9 0 5 25 37 56 72 31 34 64 80 74 101 l17 39 17 -25 c9 -14 18 -36 19 -48
4 -26 37 -38 37 -14 0 8 4 26 10 41 9 25 10 25 28 7 10 -10 40 -27 65 -38 26
-10 47 -22 47 -26 0 -4 -17 -12 -37 -18 -69 -19 -73 -26 -29 -65 l39 -35 488
0 c380 0 488 3 491 13 3 6 4 46 3 87 -1 60 -6 85 -29 128 -15 30 -26 63 -24
74 2 17 10 10 38 -33 60 -91 69 -118 70 -196 l0 -73 261 0 262 0 -7 48 c-4 26
-7 58 -6 72 5 80 -1 156 -15 197 -22 63 -16 74 29 59 41 -14 96 -10 96 8 0 21
-158 182 -197 200 -21 9 -46 29 -57 42 -18 26 -18 26 14 53 23 19 31 33 29 51
-3 20 -10 24 -39 25 -19 1 -51 10 -70 20 -32 17 -33 18 -14 26 46 16 64 56 64
138 0 53 -5 83 -15 97 -15 19 -15 19 -30 -1 -8 -10 -20 -34 -27 -52 -12 -33
-54 -58 -75 -44 -6 3 -17 26 -24 51 -7 25 -18 52 -25 60 -12 14 -4 27 52 90
72 82 83 100 108 176 18 56 49 80 89 71 13 -4 29 -18 35 -32 15 -32 34 -32 68
0 15 14 31 25 35 25 16 0 28 -37 33 -96 3 -43 8 -60 19 -62 20 -4 57 67 87
168 30 102 59 158 93 184 41 30 116 131 133 180 19 53 61 116 77 116 14 0 49
36 85 88 28 40 18 61 -27 54 -16 -2 -52 3 -79 12 -60 20 -166 125 -201 198
l-22 47 25 38 c14 21 26 48 26 61 0 22 -3 23 -39 17 -52 -9 -118 10 -126 35
-4 12 -17 27 -30 36 -15 10 -21 21 -18 35 9 33 -36 137 -66 152 -14 6 -30 25
-36 41 -9 25 -6 31 20 53 17 13 46 33 66 43 40 21 73 64 65 86 -4 11 -31 14
-126 14 -97 0 -126 3 -148 17 -36 23 -42 32 -42 69 0 33 -21 57 -57 68 -13 4
-23 10 -24 14 -5 44 -12 68 -22 75 -9 6 -9 10 1 14 7 3 25 15 40 27 15 12 46
34 69 49 50 32 76 67 67 91 -8 21 -10 21 -95 -15 -41 -18 -92 -34 -113 -37
-59 -7 -185 27 -224 60 -18 15 -42 30 -55 32 -51 11 -115 13 -130 4 -21 -11
-151 92 -190 151 -30 45 -50 50 -87 21 -33 -26 -40 -25 -65 6 -18 23 -24 25
-43 15 -25 -13 -27 -6 -11 36 6 16 8 50 4 81 -9 70 -29 67 -71 -11 -43 -82
-51 -87 -59 -41 -3 22 -11 50 -17 64 l-10 25 -20 -25 c-13 -16 -18 -35 -16
-57 3 -22 0 -33 -9 -33 -7 0 -13 4 -13 9 0 13 -97 81 -116 81 -13 0 -15 -7 -9
-36 9 -50 -8 -36 -42 32 -14 30 -32 54 -39 54 -17 0 -25 -27 -18 -58 10 -40
-10 -15 -29 38 -33 88 -50 105 -189 187 l-133 79 -66 107 c-36 58 -83 130
-105 159 -41 55 -74 74 -73 41z m201 -292 c19 -34 50 -57 197 -143 100 -59
104 -63 131 -122 34 -77 54 -96 77 -73 16 15 18 14 38 -21 24 -44 58 -54 75
-22 17 32 24 17 21 -42 -2 -38 -8 -56 -22 -66 -24 -17 -24 -44 1 -124 24 -77
26 -102 5 -94 -8 3 -21 8 -28 11 -7 3 -22 -3 -34 -14 -18 -18 -20 -28 -16
-113 l5 -93 -31 -29 c-17 -17 -31 -38 -31 -48 0 -10 -7 -30 -16 -43 -9 -14
-23 -61 -30 -106 -18 -102 -27 -119 -62 -119 -37 0 -52 -17 -52 -60 0 -45 -27
-185 -40 -210 -5 -10 -10 -35 -10 -54 0 -66 -101 -153 -195 -167 -27 -5 -79
-13 -115 -18 -36 -6 -88 -11 -116 -11 -53 0 -101 -26 -149 -79 -19 -22 -84
-69 -126 -92 -19 -10 -29 -4 -93 63 -69 71 -76 76 -205 128 -130 52 -182 84
-308 186 -78 64 -124 57 -190 -29 -53 -71 -59 -110 -33 -214 12 -48 33 -116
46 -151 27 -69 30 -156 14 -372 -5 -72 -4 -119 2 -127 9 -11 -5 -53 -18 -53
-14 0 -62 31 -83 54 -29 31 -57 34 -66 6 -10 -31 14 -103 47 -137 18 -18 28
-38 25 -46 -3 -8 -34 -30 -69 -50 -152 -83 -179 -100 -203 -129 -26 -31 -26
-31 -7 -51 19 -19 20 -19 105 2 47 12 96 25 109 30 13 5 41 17 63 25 l40 17
-58 -53 c-53 -48 -57 -55 -44 -72 12 -17 22 -18 83 -12 127 14 139 13 139 -9
0 -11 -15 -29 -35 -43 -43 -29 -58 -56 -40 -77 9 -11 33 -15 90 -15 43 0 85
-3 94 -6 25 -10 19 -42 -12 -58 -57 -30 -59 -42 -11 -86 43 -39 59 -45 107
-41 38 3 27 -34 -23 -75 -32 -26 -45 -43 -43 -58 3 -21 11 -26 121 -75 37 -16
67 -34 67 -38 0 -4 -27 -25 -60 -46 -32 -21 -62 -47 -65 -58 -7 -20 15 -49 36
-49 7 0 -2 -13 -21 -30 l-35 -30 33 -30 c17 -16 32 -32 32 -34 0 -14 -40 -14
-94 1 -35 9 -70 13 -80 10 -25 -10 -31 -35 -12 -56 9 -10 16 -21 16 -24 0 -4
-49 -7 -109 -7 -86 0 -113 -3 -125 -16 -18 -18 -20 -30 -6 -39 32 -20 -7 -25
-195 -25 -113 0 -205 2 -205 5 0 3 9 14 20 25 25 25 26 71 3 98 -10 11 -42 33
-72 48 -77 42 -197 171 -176 192 3 3 20 11 38 17 34 11 77 66 77 98 0 22 -27
57 -44 57 -6 0 -24 -7 -40 -15 -16 -9 -31 -13 -33 -11 -8 7 25 59 72 116 72
86 72 132 1 138 -20 2 -36 6 -36 10 1 4 27 24 60 44 68 43 99 82 83 107 -5 9
-34 26 -64 38 -29 12 -55 25 -56 30 -1 4 22 19 52 32 116 50 216 183 241 322
18 101 30 130 77 187 47 56 65 113 47 147 -8 16 -22 25 -37 25 -18 0 -23 6
-23 24 0 40 -32 55 -91 44 -28 -5 -63 -8 -77 -6 -24 3 -18 8 43 40 40 20 89
56 113 82 35 38 42 52 42 88 0 43 -29 88 -57 88 -23 0 -14 18 12 24 39 10 115
88 115 118 0 38 -20 50 -54 33 -37 -20 -56 -19 -56 2 0 27 -31 53 -64 53 -30
1 -29 2 19 26 61 31 99 66 130 119 23 39 24 45 18 183 -6 141 -7 144 -32 160
-39 25 -41 30 -41 133 0 83 -3 100 -21 123 -16 20 -19 30 -10 39 26 26 -3 122
-45 145 -13 7 -13 13 1 45 29 70 19 101 -59 185 -27 29 -28 32 -10 32 17 0
110 51 124 69 9 11 124 88 158 105 46 24 181 46 280 46 91 0 140 15 166 51 21
31 20 67 -4 107 -11 18 -20 34 -20 37 0 2 25 -12 56 -30 31 -19 80 -39 108
-46 47 -10 58 -9 102 10 42 19 66 22 174 22 133 -1 167 8 181 45 6 17 0 32
-23 63 -16 23 -27 41 -24 41 4 0 30 -18 58 -40 62 -50 83 -49 83 3 0 20 2 37
3 37 2 0 16 -9 31 -19 39 -28 106 -44 131 -31 28 15 35 54 17 103 -9 23 -19
65 -22 92 l-6 50 73 -112 c40 -62 81 -126 90 -142z m801 -400 c-1 -2 -9 2 -17
8 -12 10 -13 17 -3 39 l12 26 5 -34 c3 -19 5 -37 3 -39z m-150 -45 c9 3 17 12
17 20 0 23 18 16 22 -8 5 -34 30 -32 53 2 11 16 22 30 25 30 3 0 4 -18 2 -39
-2 -23 2 -53 11 -70 14 -29 14 -30 -14 -42 -16 -6 -43 -29 -60 -50 -25 -32
-29 -44 -23 -74 3 -19 10 -38 15 -41 16 -9 10 -22 -15 -28 -33 -8 -80 -79 -74
-111 4 -21 0 -28 -29 -41 -45 -22 -63 -50 -63 -101 0 -38 -4 -45 -35 -65 -19
-13 -35 -28 -35 -34 0 -13 -27 -70 -50 -104 -9 -14 -18 -47 -19 -75 -2 -35 -9
-57 -25 -75 -20 -22 -23 -35 -21 -114 l1 -88 -36 -23 c-34 -21 -36 -26 -47
-104 -11 -69 -10 -93 3 -149 8 -37 22 -77 30 -89 14 -22 13 -22 -14 -17 -45 9
-59 -16 -41 -74 13 -39 19 -47 39 -47 19 0 29 9 39 33 18 41 28 41 36 0 4 -18
11 -37 15 -43 4 -5 13 -32 20 -60 8 -27 29 -80 48 -116 39 -76 51 -150 51
-341 1 -90 -3 -131 -18 -175 -11 -32 -22 -84 -25 -116 -12 -116 -47 -181 -151
-280 -16 -15 -44 -35 -62 -43 -28 -14 -34 -14 -61 0 -16 8 -44 18 -62 21 -18
3 -48 12 -67 20 -19 8 -67 17 -106 19 -40 2 -92 12 -116 20 -24 9 -53 18 -65
20 -104 19 -326 88 -356 110 -8 6 -37 22 -65 36 -76 38 -132 101 -150 168 -9
32 -24 89 -35 127 -11 39 -22 113 -26 165 l-6 95 39 54 c21 30 74 89 118 132
45 43 103 106 130 140 31 38 77 79 120 107 39 24 95 68 125 97 l55 53 119 6
c66 4 127 11 137 17 10 5 31 9 47 9 41 0 109 41 165 99 40 43 47 56 47 91 0
23 5 50 10 60 17 31 38 162 32 203 -4 33 -2 38 14 37 66 -7 85 19 108 152 8
45 22 87 34 102 11 15 18 35 15 46 -4 14 1 22 19 29 18 7 29 22 38 55 11 42
11 63 -5 142 -9 40 6 49 44 29 28 -14 31 -14 41 4 15 28 13 47 -15 136 -14 44
-25 81 -25 82 0 1 10 3 23 5 20 3 22 8 22 65 l0 62 36 -35 c24 -23 41 -33 52
-28z m226 -47 c29 -23 41 -24 80 -1 l31 17 52 -56 c29 -31 75 -73 101 -94 46
-35 54 -38 127 -41 81 -3 109 -12 147 -46 24 -22 136 -52 199 -52 23 0 69 12
108 28 37 16 69 27 71 24 3 -2 -27 -26 -65 -53 -77 -52 -105 -82 -91 -99 5 -6
14 -29 20 -52 8 -31 19 -45 46 -60 28 -15 35 -25 35 -48 0 -21 11 -40 40 -68
38 -35 46 -38 103 -40 34 -1 69 -2 77 -4 8 -1 30 -2 48 -3 17 -1 32 -5 32 -10
0 -5 -25 -23 -55 -40 -95 -54 -107 -104 -40 -166 39 -35 65 -90 65 -137 0 -26
11 -43 51 -83 48 -48 53 -50 104 -50 l54 0 -20 -33 c-10 -18 -19 -43 -19 -55
1 -43 41 -110 107 -179 72 -75 127 -107 181 -108 17 0 32 -3 32 -6 0 -15 -44
-65 -68 -76 -32 -16 -76 -79 -92 -132 -14 -47 -76 -130 -125 -169 -40 -32 -69
-83 -86 -153 -7 -27 -23 -74 -37 -104 l-25 -55 -7 37 c-13 70 -59 96 -108 62
-21 -14 -24 -14 -53 10 -17 14 -41 26 -54 26 -38 0 -82 -45 -101 -103 -20 -61
-39 -91 -111 -171 -57 -63 -61 -78 -39 -123 8 -15 20 -43 27 -61 26 -72 90
-75 130 -7 12 19 23 35 25 35 2 0 4 -27 4 -60 0 -55 -3 -63 -36 -99 -30 -34
-34 -43 -24 -60 5 -11 32 -28 59 -38 l49 -17 -19 -24 c-37 -48 -15 -99 60
-137 41 -21 88 -64 146 -133 l20 -24 -45 7 c-38 6 -48 3 -64 -14 -17 -19 -17
-23 -2 -73 10 -33 18 -98 19 -170 l3 -118 -227 0 -226 0 -5 68 c-6 75 -33 136
-92 206 -60 72 -98 16 -52 -78 21 -42 26 -68 26 -124 l0 -72 -462 0 c-376 1
-468 3 -488 15 l-25 13 25 10 c33 13 53 36 48 59 -2 10 -32 34 -68 53 -64 35
-65 36 -71 86 -4 28 -12 60 -18 72 -19 36 4 25 40 -19 61 -73 116 -129 128
-129 26 0 51 40 51 81 0 32 3 39 13 31 21 -17 170 -41 217 -35 82 11 91 39 30
98 -45 44 -51 60 -18 52 27 -7 58 25 51 53 -4 15 0 20 13 20 32 0 122 47 134
70 17 33 -12 60 -64 60 l-41 1 45 21 c87 40 147 107 128 142 -9 17 -19 18
-114 13 l-104 -6 15 23 c8 12 31 67 50 122 34 97 37 101 115 172 89 82 162
184 181 252 7 25 14 50 15 55 27 92 23 167 -12 207 -48 53 -138 70 -228 43
-28 -9 -88 -15 -140 -15 -87 0 -95 2 -176 43 -121 59 -147 69 -168 63 -22 -7
-31 9 -72 132 -29 85 -54 132 -70 132 -5 0 -20 -14 -32 -31 -21 -28 -24 -29
-35 -13 -19 26 -16 31 16 37 32 7 50 40 33 60 -6 7 -18 44 -27 82 -21 91 -6
198 32 222 36 24 43 45 49 140 3 58 10 93 20 104 9 10 19 41 23 71 8 61 66
184 93 199 25 14 48 62 48 103 0 26 6 38 23 47 43 22 67 52 67 83 0 22 11 40
47 73 l47 44 -12 45 c-11 42 -11 48 10 73 13 15 36 36 53 47 31 20 36 43 20
90 -6 19 -4 21 22 16 15 -3 39 -13 52 -23z m-2043 -1084 c18 -14 38 -30 46
-37 66 -63 178 -131 268 -164 41 -14 97 -38 124 -51 48 -25 62 -36 124 -106
l32 -37 -49 -62 c-27 -35 -92 -104 -144 -154 -55 -52 -99 -102 -103 -118 -6
-26 -24 -36 -24 -13 -1 6 -5 57 -10 111 -9 109 -29 151 -70 151 -42 0 -48 -28
-17 -88 15 -30 27 -61 27 -70 0 -16 7 -36 37 -106 12 -27 13 -38 3 -56 -9 -16
-9 -47 -1 -126 5 -57 9 -105 7 -106 -7 -7 -62 20 -84 40 -13 12 -35 41 -48 64
-14 22 -32 44 -40 47 -13 5 -15 -5 -12 -61 4 -80 -9 -89 -62 -46 -49 39 -114
111 -112 126 4 37 16 330 15 372 0 28 -10 72 -22 100 -25 56 -51 157 -58 227
-4 39 0 56 21 92 27 47 81 96 105 96 8 0 29 -11 47 -25z m222 -530 c7 -14 12
-45 11 -68 -1 -37 -2 -39 -9 -15 -4 15 -15 37 -24 50 -9 12 -16 30 -16 40 0
27 25 22 38 -7z m1459 -155 c21 -11 44 -20 53 -20 8 0 42 -17 75 -37 60 -38
60 -38 170 -38 80 0 126 5 168 19 56 18 59 18 114 0 34 -12 64 -29 75 -44 18
-25 25 -92 14 -139 -38 -162 -72 -213 -257 -386 -20 -20 -41 -52 -48 -77 -46
-151 -79 -208 -121 -208 -16 0 -40 -4 -54 -10 -41 -15 -41 6 1 58 42 51 98
150 90 158 -3 3 -36 -15 -75 -40 -83 -55 -139 -76 -200 -76 l-46 0 41 43 c23
23 58 70 77 105 41 73 150 209 175 217 9 3 41 30 71 60 29 30 57 55 61 55 4 0
12 14 19 30 14 33 1 60 -27 60 -23 0 -87 -54 -118 -102 -16 -24 -46 -64 -67
-89 -21 -25 -72 -104 -114 -175 -59 -99 -93 -144 -148 -196 -72 -67 -146 -118
-146 -99 0 5 6 14 14 18 31 17 115 135 135 187 11 30 22 81 25 113 2 32 13 85
24 118 19 54 21 77 17 221 -4 156 -15 236 -36 275 -12 24 -8 24 38 -1z m383
-311 c0 -11 -130 -138 -143 -139 -14 0 50 85 88 118 37 33 55 40 55 21z
m-1539 -434 c14 -5 16 -10 9 -23 -5 -9 -14 -42 -19 -72 -5 -30 -14 -75 -20
-100 -13 -59 -13 -136 -1 -182 6 -20 12 -56 14 -81 6 -81 59 -129 171 -156
112 -27 172 -46 200 -63 42 -25 127 -24 181 2 45 22 114 104 141 168 9 20 22
82 29 137 13 88 30 165 38 165 2 0 18 -5 35 -11 38 -13 39 -2 -16 -176 -30
-96 -48 -133 -83 -179 -84 -107 -147 -155 -207 -157 -51 -2 -183 20 -259 43
-33 10 -87 22 -120 25 -94 11 -144 40 -177 105 -32 61 -33 104 -6 247 12 69
12 78 -13 180 -15 60 -30 132 -33 161 l-7 53 62 -40 c34 -22 70 -43 81 -46z
m254 -100 c39 -10 89 -23 113 -29 l43 -11 -7 -95 c-4 -52 -13 -108 -21 -124
-9 -17 -11 -32 -5 -38 23 -23 51 69 55 180 2 60 5 71 17 66 8 -4 53 -10 100
-14 77 -7 170 -27 170 -37 0 -2 -7 -17 -15 -33 -8 -16 -14 -33 -13 -37 1 -4
-1 -30 -5 -58 -4 -27 -9 -67 -12 -88 -8 -74 -77 -187 -133 -220 -18 -10 -56
-21 -86 -24 -43 -4 -63 0 -107 20 -30 14 -76 31 -104 37 -190 44 -224 66 -237
158 -20 145 -21 241 -3 287 9 25 18 65 20 88 2 23 4 43 4 43 1 1 36 -10 79
-26 42 -15 109 -35 147 -45z m1118 38 c-10 -16 -34 -49 -55 -74 -21 -25 -38
-53 -38 -61 0 -19 34 -33 52 -22 6 4 86 8 177 10 l166 3 -40 -35 c-73 -63
-112 -78 -197 -79 -95 0 -116 -14 -67 -44 37 -23 60 -26 162 -22 37 2 67 -1
67 -6 0 -13 -86 -53 -115 -53 -34 0 -67 -37 -55 -61 15 -27 12 -29 -16 -18
-21 7 -31 6 -45 -7 -11 -10 -19 -21 -19 -26 0 -5 23 -32 50 -60 28 -28 50 -53
50 -55 0 -1 -28 -3 -63 -3 -86 0 -191 24 -218 49 -13 12 -27 21 -32 21 -9 0
-4 -56 8 -95 3 -11 0 -28 -8 -39 -13 -18 -15 -17 -50 14 -20 18 -37 37 -37 44
-1 18 -29 47 -108 110 -91 74 -110 66 -52 -21 46 -70 55 -104 45 -169 l-7 -47
-30 46 c-17 26 -36 47 -43 47 -7 0 -16 -17 -20 -37 -7 -41 -32 -81 -82 -130
-17 -18 -34 -41 -38 -53 -3 -11 -10 -20 -14 -20 -4 0 3 51 16 113 26 125 26
145 0 161 -16 9 -23 5 -47 -23 -29 -34 -30 -34 -50 -16 -20 18 -19 18 6 44 39
40 109 128 122 153 6 13 29 83 52 156 l41 132 34 0 c36 0 155 57 192 92 15 14
39 22 75 24 114 8 173 26 218 70 24 23 32 16 13 -13z"/>
<path d="M2204 4134 c-68 -36 -123 -92 -204 -209 -114 -164 -142 -197 -193
-224 -63 -34 -189 -150 -243 -224 -54 -73 -82 -155 -66 -192 6 -14 15 -25 20
-25 5 0 30 27 55 59 50 65 158 159 210 183 160 75 171 82 199 133 15 28 39 85
52 127 32 99 92 193 156 247 75 63 104 105 90 130 -14 27 -17 26 -76 -5z m-15
-87 c-98 -94 -147 -169 -184 -283 -40 -123 -54 -146 -110 -176 -28 -15 -66
-32 -85 -38 -68 -19 -245 -171 -271 -231 -6 -16 -15 -29 -20 -29 -12 0 -12 -2
10 63 11 31 30 72 43 91 54 79 190 205 250 231 57 25 72 42 212 250 30 44 73
98 95 119 40 39 131 96 141 88 3 -2 -34 -40 -81 -85z"/>
<path d="M2838 3822 c-75 -36 -98 -58 -98 -96 0 -45 20 -67 86 -99 45 -22 66
-40 89 -75 41 -64 62 -65 124 -4 47 44 51 52 51 95 0 36 -6 53 -28 79 -16 18
-39 48 -52 67 -22 31 -74 62 -102 60 -7 0 -38 -13 -70 -27z m116 -12 c14 -5
32 -22 40 -37 8 -15 28 -43 45 -61 18 -20 31 -44 31 -59 0 -33 -32 -82 -74
-111 l-31 -22 -17 22 c-10 13 -23 36 -30 51 -9 20 -31 37 -73 56 -109 51 -114
88 -20 138 65 34 90 38 129 23z"/>
<path d="M2429 3363 c-32 -39 -42 -72 -37 -127 9 -108 104 -203 232 -231 57
-13 79 -14 95 -5 32 17 26 48 -11 63 l-33 14 36 17 c42 20 79 79 79 125 0 69
-73 150 -138 152 -96 3 -117 -7 -144 -68 -14 -33 -23 -42 -31 -34 -8 8 -8 20
1 45 7 18 10 41 6 50 -8 21 -37 20 -55 -1z m35 -27 c-5 -13 -9 -14 -21 -4 -13
10 -13 13 4 19 23 8 25 6 17 -15z m238 -2 c15 -8 39 -33 52 -57 21 -35 24 -49
17 -74 -29 -102 -129 -134 -215 -68 -60 46 -69 102 -26 173 31 50 103 61 172
26z m-247 -91 c31 -95 129 -180 228 -198 52 -10 47 -27 -5 -19 -73 11 -131 35
-176 72 -58 48 -82 97 -82 169 1 64 8 59 35 -24z"/>
<path d="M2573 3314 c-21 -21 -24 -32 -20 -61 8 -48 33 -73 72 -73 73 0 111
85 60 135 -33 33 -78 33 -112 -1z m88 -4 c30 -17 26 -83 -6 -100 -33 -17 -72
-1 -81 35 -8 33 1 53 28 65 31 12 36 12 59 0z"/>
<path d="M2781 3101 c-26 -36 -27 -57 -2 -71 26 -13 27 -13 51 12 22 24 26 58
8 76 -19 19 -35 14 -57 -17z m40 -17 c-4 -16 -15 -30 -24 -32 -15 -3 -15 1 4
33 25 41 32 41 20 -1z"/>
<path d="M2897 2564 c-15 -15 -6 -44 18 -60 32 -21 58 -4 53 35 -2 21 -9 27
-33 29 -17 2 -34 0 -38 -4z"/>
<path d="M2532 2519 c-53 -63 -22 -92 52 -48 39 23 54 53 36 74 -22 26 -53 17
-88 -26z m53 -9 c-10 -11 -23 -20 -28 -20 -6 0 -2 9 8 20 10 11 23 20 28 20 6
0 2 -9 -8 -20z"/>
<path d="M2554 2346 c-4 -9 -4 -28 -1 -43 4 -21 -5 -35 -53 -82 -80 -78 -122
-168 -122 -257 1 -72 4 -79 43 -89 20 -5 30 -2 40 12 8 11 19 22 25 26 16 10
84 -20 84 -37 0 -23 -41 -67 -59 -62 -68 18 -88 17 -106 -10 -16 -25 -16 -29
0 -71 19 -48 67 -91 143 -125 52 -23 47 -42 -7 -23 -67 23 -122 64 -137 101
-10 24 -20 34 -32 32 -14 -3 -16 -13 -14 -53 3 -59 40 -122 77 -131 14 -3 25
-10 25 -14 0 -14 -28 -32 -47 -30 -34 4 -43 0 -43 -20 0 -12 -7 -32 -16 -45
-16 -25 -16 -25 39 -50 31 -13 66 -26 79 -28 13 -2 40 -11 60 -20 34 -16 40
-15 99 3 34 11 63 19 64 18 37 -58 47 -66 98 -76 93 -19 167 16 167 77 0 14
16 57 36 95 45 89 36 100 -48 58 -55 -28 -69 -31 -115 -26 -29 4 -53 10 -53
14 0 4 26 10 58 13 77 7 182 56 214 99 69 91 60 136 -28 152 -66 12 -72 80 -9
91 27 5 34 -1 72 -55 24 -33 47 -60 52 -60 18 0 59 41 76 76 11 23 17 63 18
109 1 60 -3 81 -25 122 -25 49 -25 49 -4 49 16 -1 22 6 24 30 3 34 -18 60 -43
50 -8 -3 -15 -18 -15 -33 0 -27 -1 -27 -26 12 -62 94 -122 136 -239 171 -65
18 -223 22 -253 5 -12 -7 -19 -4 -27 12 -13 27 -62 35 -71 13z m60 -40 c14
-22 19 -24 48 -15 49 14 185 8 250 -12 87 -26 143 -63 188 -124 22 -30 45 -55
50 -55 6 0 10 -7 10 -15 0 -9 9 -33 20 -55 28 -55 28 -181 0 -227 -11 -18 -25
-33 -32 -33 -7 0 -32 25 -55 55 -48 61 -73 69 -116 35 -34 -27 -41 -53 -23
-87 14 -29 45 -49 80 -55 37 -6 41 -31 12 -77 -21 -33 -42 -49 -91 -72 -35
-16 -83 -31 -107 -35 -87 -13 -115 -54 -53 -80 48 -20 99 -18 145 6 46 23 48
19 18 -30 -12 -19 -24 -51 -27 -70 -8 -47 -39 -62 -115 -56 -54 4 -63 8 -91
42 l-32 37 -51 -16 c-62 -21 -92 -21 -129 -3 -15 8 -47 20 -69 26 -63 18 -68
24 -53 48 7 12 25 22 38 24 16 2 31 14 41 31 15 28 14 29 -21 60 -32 28 -59
66 -59 81 0 3 25 -12 57 -34 31 -22 72 -44 92 -50 30 -8 39 -7 56 10 24 25 14
47 -34 71 -95 49 -151 109 -137 146 5 12 16 14 57 9 46 -6 52 -5 79 23 51 50
37 104 -34 131 -25 9 -34 8 -57 -10 -49 -35 -59 -28 -59 42 0 82 35 152 117
234 56 56 62 66 57 93 -8 37 7 41 30 7z m586 -186 c0 -5 -5 -10 -11 -10 -5 0
-7 5 -4 10 3 6 8 10 11 10 2 0 4 -4 4 -10z"/>
<path d="M2263 2013 c-7 -2 -13 -16 -13 -29 0 -31 42 -53 65 -34 37 31 -5 82
-52 63z"/>
<path d="M3652 3420 c-64 -10 -83 -25 -122 -103 -36 -73 -37 -87 -5 -121 38
-41 79 -36 142 19 28 25 61 45 72 45 34 0 88 27 100 49 9 16 8 28 -4 51 -29
55 -86 74 -183 60z m127 -34 c15 -8 32 -26 39 -41 11 -25 10 -27 -23 -41 -19
-7 -46 -14 -60 -14 -16 0 -45 -18 -81 -50 -59 -54 -79 -57 -117 -21 -17 16
-16 20 12 82 36 79 44 87 101 92 89 7 101 7 129 -7z"/>
<path d="M4210 3250 c-6 -12 -18 -55 -26 -98 -8 -42 -25 -99 -39 -125 -14 -27
-25 -53 -25 -58 0 -5 17 -27 37 -50 l37 -41 -12 -56 c-7 -31 -26 -79 -42 -106
-27 -43 -30 -53 -20 -79 5 -16 10 -95 10 -174 0 -106 4 -153 15 -180 14 -34
17 -36 32 -20 21 21 35 60 83 237 24 86 40 166 40 199 0 46 4 60 26 82 23 24
25 33 19 68 -4 25 -23 62 -47 94 -36 48 -39 55 -31 92 27 136 -15 293 -57 215z
m35 -140 c-3 -30 -8 -71 -11 -90 -5 -30 0 -41 30 -76 52 -61 76 -143 43 -144
-7 0 -19 -6 -29 -13 -13 -11 -15 -21 -7 -60 7 -40 3 -67 -26 -178 -19 -72 -44
-158 -55 -191 -11 -33 -17 -64 -15 -69 3 -4 2 -10 -3 -13 -5 -3 -9 69 -10 160
0 96 -5 179 -12 200 -11 32 -10 38 10 59 24 26 60 131 60 176 0 22 -10 39 -36
63 l-37 34 27 54 c14 29 33 92 41 138 8 47 15 87 16 90 1 3 5 -15 11 -40 5
-25 6 -70 3 -100z"/>
<path d="M3714 2908 c-19 -18 -41 -51 -49 -73 -9 -25 -14 -32 -15 -19 0 25
-24 49 -40 39 -5 -3 -16 -18 -24 -33 -12 -24 -11 -31 10 -64 68 -106 264 -160
374 -103 34 17 41 35 33 78 -10 52 -22 61 -50 36 -12 -13 -23 -28 -23 -36 0
-7 -9 -13 -19 -13 -11 0 -28 -3 -38 -7 -10 -4 -1 9 20 29 32 31 37 41 37 82 0
26 -5 56 -10 67 -16 29 -64 49 -120 49 -43 0 -55 -5 -86 -32z m162 -7 c25 -15
34 -29 39 -61 11 -63 -34 -100 -123 -100 -42 0 -52 5 -81 34 -39 41 -38 66 8
115 25 26 36 31 78 31 30 0 60 -7 79 -19z m-246 -71 c0 -5 -5 -10 -11 -10 -5
0 -7 5 -4 10 3 6 8 10 11 10 2 0 4 -4 4 -10z m23 -64 c80 -67 104 -76 204 -76
66 0 95 4 112 17 18 12 23 13 19 2 -13 -39 -143 -56 -234 -30 -47 13 -122 67
-148 105 -24 37 -12 32 47 -18z m327 -11 c0 -8 -9 -19 -21 -25 -20 -11 -20
-11 -4 14 20 30 25 32 25 11z"/>
<path d="M3770 2903 c-65 -23 -44 -113 26 -113 39 0 54 16 54 56 0 46 -37 72
-80 57z m55 -58 c0 -26 -3 -30 -29 -30 -36 0 -56 26 -36 50 8 9 24 15 39 13
22 -2 26 -8 26 -33z"/>
<path d="M1813 2455 c-32 -25 -60 -86 -48 -104 9 -15 35 -1 35 19 0 9 9 29 21
44 27 34 82 36 116 4 16 -15 26 -19 34 -11 19 19 -31 61 -81 68 -38 5 -50 2
-77 -20z"/>
<path d="M3822 1938 c-15 -15 3 -38 29 -38 22 0 49 -37 49 -68 0 -13 -9 -41
-19 -62 -11 -22 -15 -42 -10 -46 15 -9 27 4 49 53 17 39 18 51 8 85 -11 38
-57 88 -82 88 -6 0 -17 -5 -24 -12z"/>
<path d="M5435 3020 c-3 -5 -1 -10 4 -10 6 0 11 5 11 10 0 6 -2 10 -4 10 -3 0
-8 -4 -11 -10z"/>
</g>
</svg>
